<mxfile host="app.diagrams.net" modified="2024-06-04T08:44:02.420Z" agent="Mozilla/5.0 (Windows NT 10.0; Win64; x64; rv:109.0) Gecko/20100101 Firefox/115.0" version="24.4.13" etag="5Oew70d8n29Lfbk-fHA8" type="github">
  <diagram name="第 1 页" id="g26ovN0Hiqw2VFIlpo5D">
    <mxGraphModel>
      <root>
        <mxCell id="0" />
        <mxCell id="1" parent="0" />
      </root>
    </mxGraphModel>
  </diagram>
</mxfile>
